<?xml version="1.0" encoding="UTF-8"?>
<svg id="Layer_2" data-name="Layer 2" xmlns="http://www.w3.org/2000/svg" viewBox="0 0 432.39 425.57">
  <defs>
    <style>
      .cls-1 {
        fill: #c6d2db;
      }
    </style>
  </defs>
  <g id="Layer_1-2" data-name="Layer 1">
    <g>
      <polygon class="cls-1" points="297.59 400.04 298.08 399.56 298.06 399.54 297.59 400.04"/>
      <path class="cls-1" d="M237.66,389.48c-39.45,2.27-96.66,5.55-182.54-43.22,67.51,69.61,201.38,79.31,201.38,79.31,11.23-3.42,23.87-12.98,36.85-25.95-13.3-12.56-30.45-11.59-55.69-10.14Z"/>
      <path class="cls-1" d="M205.76,360.53c-10.74,.57-21.27,.76-31.58,.58-.01,0-.02,0-.02,0,0,0-.01,0-.01,0,0,0-.02,0-.02,0,0,0-.01,0-.01,0,0,0-.01,0-.01,0,0,0-.01,0-.01,0,0,0-.01,0-.01,0-29.47-.5-57.11-4.01-82.5-10.49-14.33-3.66-27.96-8.27-40.86-13.82,88.51,52.28,146.78,48.93,186.63,46.65,25.95-1.49,45.05-2.58,60.15,11.94,16.17-16.96,32.7-38.75,47.5-60.2-24.54,7.49-53.86,14.84-86.12,19.81-16.98,2.62-34.77,4.57-53.12,5.53Z"/>
      <path class="cls-1" d="M93.21,195.68l-.13,.14,.07,.02c.02-.05,.04-.11,.06-.16Z"/>
      <path class="cls-1" d="M95.18,208.18c-.58,4.2-.96,8.48-1.14,12.81-.03,.74-.06,1.49-.08,2.24,1.21-.84,2.46-1.63,3.74-2.38-.42-9.37-.96-15.54-1.44-19.31-.42,2.19-.78,4.41-1.08,6.64Z"/>
      <path class="cls-1" d="M115.02,204.07c4.08-20.35,13.71-39.05,28.06-54.1,9.36-9.81,20.21-17.51,32-22.87,.59-.27,1.17-.53,1.76-.78,.01-.65,.02-1.3,.02-1.94,.04-3.85,.08-7.63,.12-11.33,.02-2.67,.04-5.3,.05-7.89-.59,.21-1.17,.42-1.75,.64-35.36,13.15-63.23,42.89-75.12,80.29-.23,.72-.45,1.44-.67,2.17,2.37-.92,4.98-1.22,6.62-1.22,1.38,0,2.65,.17,3.77,.5l3.39,1.01v27.61c.37-4.08,.96-8.12,1.75-12.08Z"/>
      <path class="cls-1" d="M272.47,112.8c2.73,5.19,5.26,10.64,7.58,16.27,1.4,3.41,2.71,6.83,3.87,10.17,.92,2.6,1.79,5.25,2.63,7.95,.9,.87,1.78,1.76,2.65,2.67l.1,.11c19.53,20.47,30.28,47.68,30.28,76.63,0,15.32-3.01,30.15-8.73,43.75,4.52-1.44,9.15-2.91,13.75-4.35,3-.94,5.93-1.86,8.79-2.75,3.3-11.61,5.07-23.91,5.07-36.65,0-48.32-25.52-90.4-63.19-112.23-.93-.54-1.86-1.06-2.8-1.57Z"/>
      <path class="cls-1" d="M198.94,100.22c-.04-.16-.07-.32-.11-.49-.58,.09-1.16,.18-1.74,.27-.84,.14-1.68,.29-2.52,.44-.59,.11-1.17,.22-1.75,.34v20.21c.58-.14,1.17-.28,1.75-.41,1.96-.44,3.95-.81,5.94-1.13,.58-.09,1.15-.18,1.73-.26-.34-2.66-.76-5.45-1.24-8.34-.61-3.59-1.3-7.17-2.06-10.64Z"/>
      <path class="cls-1" d="M143.4,316.36c3.93-.59,7.94-1.26,12.06-2.01-4.36-3.33-8.5-7.04-12.38-11.11-1.9-1.99-3.71-4.03-5.44-6.15-.47-.58-.93-1.15-1.39-1.74-.98,.09-1.95,.18-2.91,.29-4.6,.51-8.96,1.22-12.97,2.12-.89,.2-1.74,.41-2.53,.61l-2.54,.66c.36,.54,.71,1.08,1.08,1.62,4.22,6.24,8.97,12.07,14.16,17.42,4.18-.47,8.48-1.04,12.86-1.71Z"/>
      <path class="cls-1" d="M166.72,101.42c5.15-2.23,8.71-6.54,10.34-11.52,1.34-4.08,1.38-8.6-.07-12.8-.64-1.87-1.58-3.68-2.83-5.35l-40.7-54.5,7.99,68.7c1.47,12.65,14.05,20.35,25.28,15.47Z"/>
      <path class="cls-1" d="M96.76,174.75c4.65-11.77-2.69-24.95-14.76-26.49l-65.55-8.37,51.99,42.66c9.58,7.86,23.65,3.98,28.31-7.8Z"/>
      <path class="cls-1" d="M335.63,174.75c4.65,11.77,18.73,15.65,28.31,7.8l51.99-42.66-65.55,8.37c-12.07,1.54-19.41,14.72-14.76,26.49Z"/>
      <path class="cls-1" d="M254.39,85.32c4.16,5.08,8.05,10.51,11.63,16.24,11.14,4.56,23.46-3.1,24.92-15.62l7.98-68.7-40.7,54.5c-3.04,4.07-4.24,8.92-3.84,13.57h0Z"/>
      <path class="cls-1" d="M124.78,130.79c8.6-9.01,6.63-24.13-3.96-30.4l-57.5-34.02,32.46,60.27c5.98,11.1,20.4,13.16,29,4.15Z"/>
      <path class="cls-1" d="M345.47,226.61c0,12.74,11.6,21.98,23.31,18.56l63.61-18.56-63.61-18.56c-11.71-3.42-23.31,5.81-23.31,18.56Z"/>
      <path class="cls-1" d="M74.9,244.69c6.21-2.41,10.99-8.28,11.87-15.62,.1-.8,.15-1.63,.15-2.46,0-12.74-11.59-21.97-23.31-18.56L0,226.61l63.61,18.56c3.92,1.14,7.82,.87,11.29-.48Z"/>
      <path class="cls-1" d="M336.6,126.64l32.46-60.27-57.5,34.02c-10.59,6.26-12.56,21.39-3.96,30.4,8.6,9.01,23.02,6.95,29-4.15Z"/>
      <path class="cls-1" d="M233.26,64.29L216.19,0l-12.2,45.97c.22,.1,.45,.21,.68,.32,10.31,4.94,19.91,10.98,28.6,18Z"/>
      <path class="cls-1" d="M326.45,272.45c-6.53,2.05-13.03,4.11-19.5,6.18-.9,.29-1.8,.57-2.7,.86-40.34,12.89-79.42,25.68-116.09,34.66v-64.85c36.65,3.24,75.44,5.76,107.03,16.09,.31-21.87,.72-59.27-7.99-97.72-2.02-8.92-4.53-17.89-7.65-26.75-1.17-3.33-2.43-6.64-3.78-9.93-3.07-7.49-6.63-14.84-10.73-21.93-7.93-13.7-17.9-26.45-30.45-37.42-9.18-8.03-19.73-15.11-31.86-20.92-4.62-2.21-9.48-4.24-14.57-6.07v-12.68c-2.96-.88-8.04,.2-9.52,1.83,2.43,.7,3.27,29.76,3.07,69.82-.01,3.1-.03,6.26-.06,9.47-.03,3.71-.07,7.49-.11,11.34-.03,2.99-.07,6.02-.12,9.08-.06,3.46-.11,6.96-.18,10.5-46.76,24.87-59.7,80.24-63.24,116.72-1.1,11.38-1.29,20.92-1.3,27.13,0,2.49,.02,4.44,.02,5.75,.85-.22,1.75-.44,2.67-.65,3.95-.89,8.51-1.66,13.46-2.2,12.74-1.4,28.2-1.35,43.29,1.77-.52,9.27-1.06,17.64-1.61,24.78-3.81,.84-7.6,1.64-11.35,2.38-6.38,1.27-12.66,2.38-18.87,3.31-2.52,.38-5.03,.74-7.52,1.06-5.87,.77-11.65,1.37-17.33,1.77-3.66,.27-7.29,.45-10.87,.56V192.24c-2.96-.88-8.04,.19-9.52,1.83,1.48,.43,2.75,12.48,3.41,29.66-3.13,1.61-5.96,3.45-8.55,5.47-2.83,2.21-5.35,4.63-7.59,7.21-20.41,23.46-17.96,59.98-17.95,66.91,7.65-1.97,20.29-3.12,32.55-.66-.75,8.78-1.75,16.9-3.02,23.8-25.32-.47-48.41-5.51-68.66-17.04,.02,.05,.04,.09,.07,.15,4.35,9.19,11.84,16.34,20.87,20.32,33.08,14.59,69.32,21.93,106.17,24.14,15.97,.95,32.04,.94,48.03,.14,15.26-.77,30.45-2.25,45.36-4.31,8.47-1.16,16.86-2.51,25.13-4.03,26.84-4.91,52.42-11.49,75.63-18.79,26.45-39.28,46.16-75.17,46.16-75.17-22.1,5.81-44.08,12.39-65.78,19.17-1.49,.46-2.98,.93-4.46,1.39ZM188.15,122.24V50.08c6.49,16.47,11.77,32.66,15.34,49.05,.79,3.61,1.49,7.24,2.11,10.88,.49,2.87,.92,5.76,1.29,8.65,.48,3.68,.86,7.37,1.14,11.09,2.51,33.12-2.84,68.07-19.88,108.37V122.24Zm-85.57,151.82c-.24,7.55-.61,15.07-1.12,22.26-5.51-17.41-6.71-31.76-5.24-44.91,1.02-9.15,3.32-17.72,6.34-26.34,.5,14.2,.59,31.69,.02,48.99Zm74.15,7.41c-16.24-52.86-8.45-94.67,4.42-132.21-.84,44.82-2.48,94.34-4.42,132.21Z"/>
    </g>
  </g>
</svg>